<svg width="42" height="21" viewBox="0 0 42 21" fill="none" xmlns="http://www.w3.org/2000/svg">
<g clip-path="url(#clip0_444_389)">
<path d="M29.2638 18.1879C28.5174 18.8312 28.5174 19.8742 29.2638 20.5175C30.0099 21.1608 31.2196 21.1608 31.966 20.5175L40.8808 12.8319C42.3731 11.5453 42.3731 9.4592 40.8808 8.17267L31.9604 0.482451C31.2143 -0.160816 30.0044 -0.160816 29.2582 0.482451C28.5121 1.12572 28.5121 2.16878 29.2582 2.81205L36.2632 8.85102L1.91075 8.85103C0.855463 8.85103 -4.65064e-07 9.58852 -4.27986e-07 10.4983C-3.90908e-07 11.4081 0.855463 12.1456 1.91075 12.1456L36.2722 12.1456L29.2638 18.1879Z" fill="#FFF9EA"/>
</g>
<defs>
<clipPath id="clip0_444_389">
<rect width="21" height="42" fill="white" transform="translate(0 21) rotate(-90)"/>
</clipPath>
</defs>
</svg>
