<svg width="36" height="36" viewBox="0 0 36 36" fill="none" xmlns="http://www.w3.org/2000/svg">
<path fill-rule="evenodd" clip-rule="evenodd" d="M26 24C26.4387 24.4387 26.4387 25.5613 26 26C25.5601 26.4387 24.4387 26.4387 24 26L18 20L12 26C11.5612 26.4387 10.4399 26.4387 10 26C9.56125 25.5613 9.56125 24.4387 10 24L16 18L10 12C9.56125 11.5612 9.56125 10.4388 10 10C10.4399 9.56125 11.5612 9.56125 12 10L18 16L24 10C24.4387 9.56125 25.5601 9.56125 26 10C26.4387 10.4388 26.4387 11.5612 26 12L20 18L26 24ZM30.5 0H5.5C3.01487 0 0 3.01375 0 5.5V30.5C0 32.9863 3.01487 36 5.5 36H30.5C32.9851 36 36 32.9863 36 30.5V5.5C36 3.01375 32.9851 0 30.5 0Z" fill="#939393"/>
</svg>
