<svg width="81" height="81" viewBox="0 0 81 81" fill="none" xmlns="http://www.w3.org/2000/svg">
<rect width="81" height="81" rx="20" fill="#1D1E23"/>
<g clip-path="url(#clip0_444_382)">
<path d="M42 22.95C42 21.8731 41.1046 21 40 21C38.8954 21 38 21.8731 38 22.95V38.55H22C20.8954 38.55 20 39.423 20 40.5C20 41.577 20.8954 42.45 22 42.45H38V58.05C38 59.127 38.8954 60 40 60C41.1046 60 42 59.127 42 58.05V42.45H58C59.1046 42.45 60 41.577 60 40.5C60 39.423 59.1046 38.55 58 38.55H42V22.95Z" fill="#CBCCCF"/>
</g>
<defs>
<clipPath id="clip0_444_382">
<rect width="40" height="39" fill="white" transform="translate(20 21)"/>
</clipPath>
</defs>
</svg>
