<svg width="18" height="26" viewBox="0 0 18 26" fill="none" xmlns="http://www.w3.org/2000/svg">
<path d="M8.98766 3.34037e-08C7.80735 -0.000102313 6.63859 0.234982 5.54811 0.691829C4.45763 1.14868 3.4668 1.81833 2.6322 2.66256C1.7976 3.50679 1.13557 4.50906 0.683939 5.61211C0.232302 6.71517 -0.000101146 7.89742 3.30227e-08 9.09134C3.30227e-08 14.112 8.98766 25.9743 8.98766 25.9743C8.98766 25.9743 17.9745 14.112 17.9745 9.09134C17.9746 7.89749 17.7423 6.7153 17.2907 5.6123C16.8391 4.50929 16.1771 3.50706 15.3426 2.66284C14.5081 1.81862 13.5174 1.14894 12.427 0.692052C11.3366 0.23516 10.1679 2.90176e-08 8.98766 3.34037e-08ZM8.98766 12.9065C7.96611 12.9065 6.9864 12.496 6.26406 11.7653C5.54172 11.0346 5.13591 10.0436 5.13591 9.0103C5.13591 7.97697 5.54172 6.98596 6.26406 6.25529C6.9864 5.52461 7.96611 5.11412 8.98766 5.11412C10.0092 5.11412 10.9889 5.52461 11.7113 6.25529C12.4336 6.98596 12.8394 7.97697 12.8394 9.0103C12.8394 10.0436 12.4336 11.0346 11.7113 11.7653C10.9889 12.496 10.0092 12.9065 8.98766 12.9065Z" fill="#1976D2"/>
</svg>
