<svg width="18" height="26" viewBox="0 0 18 26" fill="none" xmlns="http://www.w3.org/2000/svg">
<path d="M9.00039 3.3276e-08C7.81841 -0.000101922 6.64799 0.234084 5.55597 0.689185C4.46394 1.14429 3.47171 1.81139 2.63593 2.65239C1.80014 3.49339 1.13718 4.49183 0.684907 5.59067C0.232631 6.68951 -0.000101289 7.86724 3.30695e-08 9.0566C3.30695e-08 14.058 9.00039 25.875 9.00039 25.875C9.00039 25.875 18 14.058 18 9.0566C18.0001 7.86731 17.7674 6.68964 17.3152 5.59085C16.8629 4.49205 16.2 3.49366 15.3643 2.65266C14.5286 1.81167 13.5365 1.14455 12.4446 0.689408C11.3526 0.234262 10.1823 2.89067e-08 9.00039 3.3276e-08ZM9.00039 12.8572C8.2375 12.8572 7.49175 12.6295 6.85744 12.203C6.22313 11.7766 5.72874 11.1704 5.4368 10.4612C5.14486 9.75196 5.06847 8.97156 5.2173 8.21867C5.36613 7.46577 5.7335 6.77419 6.27293 6.23138C6.81237 5.68857 7.49966 5.31892 8.24788 5.16916C8.99611 5.0194 9.77166 5.09626 10.4765 5.39003C11.1813 5.68379 11.7837 6.18127 12.2075 6.81954C12.6314 7.45782 12.8576 8.20822 12.8576 8.97587C12.8576 10.0053 12.4512 10.9925 11.7278 11.7204C11.0045 12.4482 10.0234 12.8572 9.00039 12.8572Z" fill="#FF3D00"/>
</svg>
