<?xml version="1.0" encoding="utf-8"?>
<!-- Generator: Adobe Illustrator 24.0.1, SVG Export Plug-In . SVG Version: 6.00 Build 0)  -->
<svg version="1.1" xmlns="http://www.w3.org/2000/svg" xmlns:xlink="http://www.w3.org/1999/xlink" x="0px" y="0px"
	 viewBox="0 0 1911 910.9" style="enable-background:new 0 0 1911 910.9;" xml:space="preserve">
<style type="text/css">
	.st0{fill:#F2E9C7;}
	.st1{fill:#BC9353;}
	.st2{fill:#F4C4B0;}
	.st3{fill:#EAAF9B;}
	.st4{display:none;}
</style>
<g id="Слой_2">
	<g id="floor">
		<rect x="630" y="190.2" class="st0" width="686.9" height="256.4"/>
		<rect x="1316.9" y="242.7" class="st0" width="526.7" height="257.8"/>
		<rect x="106" y="188.3" class="st0" width="217.3" height="54.3"/>
		<rect x="512" y="190.2" class="st0" width="118" height="52.4"/>
		<rect x="106" y="242.7" class="st0" width="524" height="253.8"/>
		<rect x="1617.3" y="188.3" class="st0" width="226.2" height="54.3"/>
	</g>
	<g id="walls">
		<rect x="106" y="490.7" class="st1" width="524" height="5.8"/>
		<rect x="106" y="188.3" class="st1" width="7.3" height="138.3"/>
		<rect x="103.7" y="326.7" class="st1" width="5.9" height="164"/>
		<rect x="109.7" y="385.8" class="st1" width="35.2" height="5.3"/>
		<rect x="158.7" y="385.8" class="st1" width="116" height="5.3"/>
		<rect x="263.6" y="391.1" class="st1" width="4.7" height="99.6"/>
		<rect x="268.2" y="412.4" class="st1" width="6.4" height="4.7"/>
		<rect x="288.2" y="412.4" class="st1" width="71.3" height="4.7"/>
		<rect x="296" y="408.7" class="st1" width="6.2" height="3.8"/>
		<rect x="288.2" y="385.8" class="st1" width="84.9" height="5.3"/>
		<rect x="295.1" y="391.1" class="st1" width="7.1" height="5.3"/>
		<rect x="353.8" y="391.1" class="st1" width="5.8" height="21.3"/>
		<rect x="353.8" y="417.1" class="st1" width="5.8" height="54.9"/>
		<rect x="353.8" y="472" class="st1" width="15.8" height="4.4"/>
		<rect x="364.7" y="476.4" class="st1" width="4.9" height="14.2"/>
		<rect x="388.3" y="385.8" class="st1" width="48.8" height="5.3"/>
		<rect x="413.8" y="391.1" class="st1" width="6.7" height="99.6"/>
		<rect x="464.7" y="419.3" class="st1" width="4" height="71.3"/>
		<rect x="464.7" y="391.1" class="st1" width="5.1" height="14.9"/>
		<rect x="452.4" y="385.8" class="st1" width="33.8" height="5.3"/>
		<rect x="499.8" y="385.8" class="st1" width="33.3" height="5.3"/>
		<rect x="515.1" y="391.1" class="st1" width="5.1" height="99.6"/>
		<rect x="547.3" y="385.8" class="st1" width="35.1" height="5.3"/>
		<rect x="567.3" y="391.1" class="st1" width="5.1" height="99.6"/>
		<rect x="623.6" y="446.7" class="st1" width="6.9" height="44"/>
		<rect x="623.6" y="439.8" class="st1" width="321.9" height="6.9"/>
		<rect x="596.4" y="385.8" class="st1" width="28.7" height="5.3"/>
		<rect x="625.1" y="338.5" class="st1" width="4.9" height="101.3"/>
		<rect x="630" y="338.8" class="st1" width="28.6" height="3.3"/>
		<rect x="673.6" y="338.8" class="st1" width="76" height="3.3"/>
		<rect x="722.7" y="342.1" class="st1" width="4.9" height="97.7"/>
		<rect x="774.8" y="342.1" class="st1" width="5" height="97.7"/>
		<rect x="764.8" y="338.8" class="st1" width="110.2" height="3.3"/>
		<rect x="875" y="333" class="st1" width="4.3" height="13.8"/>
		<rect x="875" y="361" class="st1" width="4.3" height="78.8"/>
		<rect x="879.3" y="407.7" class="st1" width="5.5" height="4.5"/>
		<rect x="898.3" y="407.7" class="st1" width="38.7" height="5.3"/>
		<rect x="931.8" y="413" class="st1" width="5.2" height="26.8"/>
		<rect x="937" y="416.3" class="st1" width="8.5" height="4.8"/>
		<rect x="960.5" y="439.8" class="st1" width="30.7" height="6.9"/>
		<rect x="974.2" y="433.3" class="st1" width="5.3" height="6.4"/>
		<rect x="970.6" y="421.6" class="st1" width="11.8" height="11.8"/>
		<rect x="960.5" y="416.3" class="st1" width="30.7" height="4.8"/>
		<rect x="1006.5" y="440.5" class="st1" width="316.2" height="6.2"/>
		<rect x="1316.9" y="420" class="st1" width="4.9" height="20.5"/>
		<rect x="1318" y="340.3" class="st1" width="3.8" height="66.5"/>
		<rect x="1321.8" y="387.3" class="st1" width="35" height="3.3"/>
		<rect x="1289.8" y="340.3" class="st1" width="28.2" height="3.2"/>
		<rect x="1208.7" y="340.3" class="st1" width="66.3" height="3.2"/>
		<rect x="1225.5" y="343.5" class="st1" width="3.5" height="97"/>
		<rect x="1073.6" y="333" class="st1" width="3.8" height="14.8"/>
		<rect x="1077.3" y="340.4" class="st1" width="116" height="3.1"/>
		<rect x="1174.8" y="343.5" class="st1" width="3.7" height="97"/>
		<rect x="1016.6" y="408.7" class="st1" width="8.3" height="3.8"/>
		<rect x="1017.1" y="412.4" class="st1" width="3" height="28.1"/>
		<rect x="1006.5" y="417.6" class="st1" width="10.6" height="2.7"/>
		<rect x="1039.4" y="408.7" class="st1" width="34.1" height="3.8"/>
		<rect x="1073.6" y="363.7" class="st1" width="3.8" height="76.8"/>
		<rect x="1316.9" y="446.7" class="st1" width="5.8" height="52.2"/>
		<rect x="1322.7" y="492.1" class="st1" width="520.9" height="6.8"/>
		<rect x="1719" y="445.1" class="st1" width="6" height="47"/>
		<rect x="1720" y="412.6" class="st1" width="4.2" height="18.2"/>
		<rect x="1724.2" y="419.4" class="st1" width="60.1" height="4.3"/>
		<rect x="1779.6" y="423.8" class="st1" width="4.8" height="68.3"/>
		<rect x="1836.8" y="382.3" class="st1" width="6.8" height="109.8"/>
		<rect x="1843.6" y="388.7" class="st1" width="23.3" height="4"/>
		<rect x="1680.2" y="388.7" class="st1" width="156.6" height="4.8"/>
		<rect x="1720" y="393.4" class="st1" width="4.2" height="5.4"/>
		<rect x="1571.1" y="387.4" class="st1" width="93.8" height="4.7"/>
		<rect x="1625.8" y="392.1" class="st1" width="5.6" height="14.2"/>
		<rect x="1626.2" y="421.7" class="st1" width="4.7" height="70.4"/>
		<rect x="1526.2" y="421.4" class="st1" width="4.4" height="70.7"/>
		<rect x="1370.3" y="387.4" class="st1" width="186.2" height="4.1"/>
		<rect x="1526.2" y="391.6" class="st1" width="5" height="14.4"/>
		<rect x="113.3" y="188.3" class="st1" width="177.7" height="8"/>
		<rect x="214.7" y="196.3" class="st1" width="4.7" height="11.3"/>
		<rect x="214.7" y="245.3" class="st1" width="76.3" height="5"/>
		<rect x="214.7" y="221" class="st1" width="4.7" height="24.3"/>
		<rect x="263.6" y="250.3" class="st1" width="4.7" height="69"/>
		<rect x="281" y="233.2" class="st1" width="4.7" height="12.2"/>
		<rect x="281" y="196.3" class="st1" width="4.7" height="19.2"/>
		<rect x="305.7" y="188.3" class="st1" width="17.7" height="6.3"/>
		<rect x="315.7" y="194.7" class="st1" width="7.7" height="48"/>
		<rect x="315.7" y="242.7" class="st1" width="165" height="7.7"/>
		<rect x="317.3" y="250.3" class="st1" width="4.3" height="14.7"/>
		<rect x="305.6" y="246.1" class="st1" width="10.1" height="2.8"/>
		<rect x="357.9" y="250.3" class="st1" width="6" height="93.1"/>
		<rect x="348.6" y="343.4" class="st1" width="31.3" height="4.1"/>
		<rect x="317.3" y="279.8" class="st1" width="5" height="39.6"/>
		<rect x="204.3" y="344" class="st1" width="130.6" height="3.6"/>
		<rect x="264.6" y="333.3" class="st1" width="4.3" height="10.7"/>
		<rect x="318.8" y="333.9" class="st1" width="4" height="10.1"/>
		<rect x="394.9" y="344" class="st1" width="28.7" height="3.6"/>
		<rect x="416" y="250.3" class="st1" width="5" height="93.7"/>
		<rect x="421" y="306.4" class="st1" width="2.6" height="3.6"/>
		<rect x="436.9" y="306.4" class="st1" width="27.8" height="3.6"/>
		<rect x="446.2" y="336.3" class="st1" width="3.7" height="7.7"/>
		<rect x="437.7" y="344" class="st1" width="46.8" height="3.6"/>
		<rect x="464.7" y="250.3" class="st1" width="3.8" height="93.7"/>
		<rect x="468.4" y="269.9" class="st1" width="15.3" height="3.2"/>
		<rect x="502.7" y="244.3" class="st1" width="17.3" height="6"/>
		<rect x="512" y="189.9" class="st1" width="24.8" height="5.9"/>
		<rect x="512.4" y="195.8" class="st1" width="7.6" height="48.6"/>
		<rect x="553.8" y="190.4" class="st1" width="21.8" height="5.3"/>
		<rect x="500.2" y="344" class="st1" width="28.6" height="4"/>
		<rect x="514.5" y="250.3" class="st1" width="5.1" height="93.7"/>
		<rect x="499.3" y="269.9" class="st1" width="15.2" height="3.2"/>
		<rect x="543.4" y="344" class="st1" width="29.1" height="3"/>
		<rect x="568.9" y="298.8" class="st1" width="3.7" height="45.2"/>
		<rect x="519.6" y="308.2" class="st1" width="49.3" height="3.8"/>
		<rect x="519.6" y="264.3" class="st1" width="48" height="4"/>
		<rect x="523.7" y="268.3" class="st1" width="4.4" height="39.9"/>
		<rect x="567.6" y="239.6" class="st1" width="4.2" height="38.3"/>
		<rect x="571.8" y="239.6" class="st1" width="5" height="3.9"/>
		<rect x="567.6" y="195.8" class="st1" width="4.2" height="43.8"/>
		<rect x="604.3" y="239.6" class="st1" width="20" height="3.9"/>
		<rect x="624.3" y="197" class="st1" width="3.7" height="103"/>
		<rect x="619.5" y="191.3" class="st1" width="319.3" height="5.7"/>
		<rect x="819.9" y="197" class="st1" width="4.6" height="28.7"/>
		<rect x="820.7" y="240.3" class="st1" width="3" height="13.5"/>
		<rect x="820.7" y="270" class="st1" width="3" height="26.5"/>
		<rect x="823.7" y="277.3" class="st1" width="15.2" height="3.2"/>
		<rect x="835" y="257.7" class="st1" width="3.8" height="19.7"/>
		<rect x="628" y="296.5" class="st1" width="104.9" height="3.5"/>
		<rect x="748" y="296.5" class="st1" width="169.7" height="4.6"/>
		<rect x="875" y="301.1" class="st1" width="4.3" height="5.3"/>
		<rect x="914.4" y="286.4" class="st1" width="3.2" height="10.1"/>
		<rect x="914.4" y="243.4" class="st1" width="3.2" height="22.1"/>
		<rect x="868.2" y="207.3" class="st1" width="70.6" height="4"/>
		<rect x="914.4" y="197" class="st1" width="3.2" height="10.3"/>
		<rect x="914.4" y="211.3" class="st1" width="3.2" height="10.2"/>
		<rect x="868.2" y="211.3" class="st1" width="4.9" height="85.2"/>
		<rect x="873.1" y="252.2" class="st1" width="41.3" height="4"/>
		<rect x="838.8" y="257.7" class="st1" width="29.4" height="3.4"/>
		<rect x="1094" y="230.9" class="st1" width="4.2" height="36.6"/>
		<rect x="1094" y="207.3" class="st1" width="4.2" height="10.4"/>
		<rect x="1115.3" y="197" class="st1" width="4.2" height="101.8"/>
		<rect x="1012.9" y="191.3" class="st1" width="134.4" height="5.7"/>
		<rect x="1017.3" y="197" class="st1" width="4" height="14.3"/>
		<rect x="1011.6" y="207.3" class="st1" width="5.8" height="4"/>
		<rect x="1094" y="280.5" class="st1" width="4.2" height="18.3"/>
		<rect x="1019.3" y="298.8" class="st1" width="299" height="5"/>
		<rect x="1073" y="303.8" class="st1" width="4.3" height="3.4"/>
		<rect x="1098.2" y="207.3" class="st1" width="17.1" height="4"/>
		<rect x="1173.3" y="190.2" class="st1" width="20.3" height="7.6"/>
		<rect x="1185.9" y="197.8" class="st1" width="4" height="101"/>
		<rect x="1207" y="190.2" class="st1" width="25.9" height="7.6"/>
		<rect x="1214.4" y="197.8" class="st1" width="4.2" height="61.6"/>
		<rect x="1218.7" y="255.1" class="st1" width="99.7" height="4.2"/>
		<rect x="1257.9" y="190.2" class="st1" width="26.8" height="6.8"/>
		<rect x="1275.4" y="197" class="st1" width="4.1" height="58.1"/>
		<rect x="1316.9" y="189.8" class="st1" width="7.3" height="53.7"/>
		<rect x="1310" y="190.2" class="st1" width="6.9" height="6.1"/>
		<rect x="1316.9" y="243.4" class="st1" width="123.9" height="7.6"/>
		<rect x="1318.3" y="251" class="st1" width="3.5" height="50.3"/>
		<rect x="1467.3" y="243.4" class="st1" width="158.4" height="7.6"/>
		<rect x="1619.7" y="251" class="st1" width="4.7" height="70.7"/>
		<rect x="1549.7" y="343.5" class="st1" width="194.7" height="4.2"/>
		<rect x="1619.7" y="335.3" class="st1" width="4.7" height="8.2"/>
		<rect x="1728" y="196.3" class="st1" width="4.7" height="147.2"/>
		<rect x="1624.3" y="273.8" class="st1" width="74.3" height="4"/>
		<rect x="1712" y="273.8" class="st1" width="16" height="4"/>
		<rect x="1624.3" y="253.3" class="st1" width="74.3" height="4"/>
		<rect x="1712" y="254.2" class="st1" width="16" height="4"/>
		<rect x="1710.9" y="234.4" class="st1" width="17.1" height="3.3"/>
		<rect x="1712" y="214.2" class="st1" width="16" height="4"/>
		<rect x="1625.8" y="234.4" class="st1" width="72.9" height="3.3"/>
		<rect x="1617.3" y="188.3" class="st1" width="8.4" height="55.1"/>
		<rect x="1625.8" y="214.2" class="st1" width="74.7" height="4"/>
		<rect x="1625.8" y="188.3" class="st1" width="217.8" height="8"/>
		<rect x="1836.8" y="196.3" class="st1" width="6.8" height="159"/>
		<rect x="1756.9" y="344.4" class="st1" width="79.9" height="3.2"/>
		<rect x="1843.6" y="344.4" class="st1" width="25.8" height="3.2"/>
		<rect x="1511.1" y="343.5" class="st1" width="26.2" height="4.2"/>
		<rect x="1529.8" y="251" class="st1" width="4.4" height="92.5"/>
		<rect x="1526.2" y="299.1" class="st1" width="3.6" height="5.6"/>
		<rect x="1458.2" y="341.9" class="st1" width="40.4" height="5.8"/>
		<rect x="1477.1" y="251" class="st1" width="3.3" height="90.9"/>
		<rect x="1480.4" y="315.3" class="st1" width="15.1" height="4"/>
		<rect x="1491.1" y="310.2" class="st1" width="22" height="3.3"/>
		<rect x="1491.1" y="313.6" class="st1" width="4.4" height="1.8"/>
		<rect x="1509" y="299.8" class="st1" width="4.1" height="10.4"/>
		<rect x="1480.4" y="299.8" class="st1" width="28.6" height="3.5"/>
		<rect x="1504.2" y="297.9" class="st1" width="4.9" height="1.9"/>
		<rect x="1504.2" y="281.2" class="st1" width="4.6" height="9.5"/>
		<rect x="1480.4" y="284.7" class="st1" width="23.7" height="3.4"/>
		<rect x="1504.2" y="264.8" class="st1" width="4" height="9.1"/>
		<rect x="1480.4" y="267.8" class="st1" width="23.7" height="3.2"/>
		<rect x="1480.4" y="252.6" class="st1" width="27.3" height="4"/>
		<rect x="1467.3" y="257" class="st1" width="9.8" height="3.3"/>
		<rect x="1373.1" y="251" class="st1" width="4.2" height="96.7"/>
		<rect x="1377.3" y="341.9" class="st1" width="24.7" height="5.8"/>
		<rect x="1413.1" y="341.9" class="st1" width="31.9" height="5.2"/>
		<rect x="1426.2" y="251" class="st1" width="3.5" height="90.9"/>
		<rect x="1429" y="256.6" class="st1" width="11.8" height="5.1"/>
		<rect x="1377.3" y="263.2" class="st1" width="48.8" height="4"/>
		<rect x="1377.3" y="266.3" class="st1" width="42.3" height="43.9"/>
		<rect x="109.7" y="344" class="st1" width="79.6" height="4.6"/>
	</g>
	<g id="stairs">
		<g id="stair_1_">
			<rect x="468.4" y="304.6" class="st2" width="46.1" height="3"/>
			<rect x="468.4" y="307.6" class="st3" width="46.1" height="0.9"/>
		</g>
		<g id="stair_2_">
			<rect x="468.4" y="300.7" class="st2" width="46.1" height="3"/>
			<rect x="468.4" y="303.7" class="st3" width="46.1" height="0.9"/>
		</g>
		<g id="stair_3_">
			<rect x="468.4" y="296.8" class="st2" width="46.1" height="3"/>
			<rect x="468.4" y="299.8" class="st3" width="46.1" height="0.9"/>
		</g>
		<g id="stair_4_">
			<rect x="468.4" y="292.9" class="st2" width="46.1" height="3"/>
			<rect x="468.4" y="295.9" class="st3" width="46.1" height="0.9"/>
		</g>
		<g id="stair_5_">
			<rect x="468.4" y="308.5" class="st2" width="46.1" height="3"/>
			<rect x="468.4" y="311.5" class="st3" width="46.1" height="0.9"/>
		</g>
		<g id="stair_6_">
			<rect x="468.4" y="312.4" class="st2" width="46.1" height="3"/>
			<rect x="468.4" y="315.4" class="st3" width="46.1" height="0.9"/>
		</g>
		<g id="stair_7_">
			<rect x="468.4" y="316.3" class="st2" width="46.1" height="3"/>
			<rect x="468.4" y="319.3" class="st3" width="46.1" height="0.9"/>
		</g>
		<g id="stair_8_">
			<rect x="571.8" y="198.5" class="st2" width="52.6" height="3"/>
			<rect x="571.8" y="201.5" class="st3" width="52.6" height="0.9"/>
		</g>
		<g id="stair_9_">
			<rect x="571.8" y="202.4" class="st2" width="52.6" height="3"/>
			<rect x="571.8" y="205.4" class="st3" width="52.6" height="0.9"/>
		</g>
		<g id="stair_10_">
			<rect x="571.8" y="206.3" class="st2" width="52.6" height="3"/>
			<rect x="571.8" y="209.3" class="st3" width="52.6" height="0.9"/>
		</g>
		<g id="stair_11_">
			<rect x="571.8" y="210.2" class="st2" width="52.6" height="3"/>
			<rect x="571.8" y="213.2" class="st3" width="52.6" height="0.9"/>
		</g>
		<g id="stair_12_">
			<rect x="571.8" y="214.1" class="st2" width="52.6" height="3"/>
			<rect x="571.8" y="217.1" class="st3" width="52.6" height="0.9"/>
		</g>
		<g id="stair_13_">
			<rect x="571.8" y="218" class="st2" width="52.6" height="3"/>
			<rect x="571.8" y="221" class="st3" width="52.6" height="0.9"/>
		</g>
		<g id="stair_14_">
			
				<rect x="1057" y="247.7" transform="matrix(-1.836970e-16 1 -1 -1.836970e-16 1321.2222 -822.8887)" class="st2" width="30.1" height="3"/>
			
				<rect x="1055.1" y="248.7" transform="matrix(-1.836970e-16 1 -1 -1.836970e-16 1319.2777 -820.9442)" class="st3" width="30.1" height="0.9"/>
		</g>
		<g id="stair_15_">
			
				<rect x="1053.1" y="247.7" transform="matrix(-1.836970e-16 1 -1 -1.836970e-16 1317.3333 -818.9998)" class="st2" width="30.1" height="3"/>
			
				<rect x="1051.2" y="248.7" transform="matrix(-1.836970e-16 1 -1 -1.836970e-16 1315.3888 -817.0554)" class="st3" width="30.1" height="0.9"/>
		</g>
		<g id="stair_16_">
			
				<rect x="1049.2" y="247.7" transform="matrix(-1.836970e-16 1 -1 -1.836970e-16 1313.4445 -815.1109)" class="st2" width="30.1" height="3"/>
			
				<rect x="1047.3" y="248.7" transform="matrix(-1.836970e-16 1 -1 -1.836970e-16 1311.5 -813.1664)" class="st3" width="30.1" height="0.9"/>
		</g>
		<g id="stair_17_">
			
				<rect x="1045.3" y="247.7" transform="matrix(-1.836970e-16 1 -1 -1.836970e-16 1309.5555 -811.222)" class="st2" width="30.1" height="3"/>
			
				<rect x="1043.4" y="248.7" transform="matrix(-1.836970e-16 1 -1 -1.836970e-16 1307.6111 -809.2776)" class="st3" width="30.1" height="0.9"/>
		</g>
		<g id="stair_18_">
			
				<rect x="1041.4" y="247.7" transform="matrix(-1.836970e-16 1 -1 -1.836970e-16 1305.6943 -807.3054)" class="st2" width="30.1" height="3"/>
			
				<rect x="1039.5" y="248.8" transform="matrix(-1.836970e-16 1 -1 -1.836970e-16 1303.7499 -805.361)" class="st3" width="30.1" height="0.9"/>
		</g>
		<g id="stair_19_">
			
				<rect x="1037.6" y="247.7" transform="matrix(-1.836970e-16 1 -1 -1.836970e-16 1301.8054 -803.4166)" class="st2" width="30.1" height="3"/>
			
				<rect x="1035.6" y="248.8" transform="matrix(-1.836970e-16 1 -1 -1.836970e-16 1299.861 -801.4721)" class="st3" width="30.1" height="0.9"/>
		</g>
		<g id="stair_20_">
			
				<rect x="1033.7" y="247.7" transform="matrix(-1.836970e-16 1 -1 -1.836970e-16 1297.8888 -799.5554)" class="st2" width="30.1" height="3"/>
			
				<rect x="1031.7" y="248.7" transform="matrix(-1.836970e-16 1 -1 -1.836970e-16 1295.9445 -797.6109)" class="st3" width="30.1" height="0.9"/>
		</g>
		<g id="stair_21_">
			
				<rect x="1029.8" y="247.7" transform="matrix(-1.836970e-16 1 -1 -1.836970e-16 1294 -795.6664)" class="st2" width="30.1" height="3"/>
			
				<rect x="1027.8" y="248.7" transform="matrix(-1.836970e-16 1 -1 -1.836970e-16 1292.0555 -793.722)" class="st3" width="30.1" height="0.9"/>
		</g>
		<g id="stair_22_">
			
				<rect x="1025.9" y="247.7" transform="matrix(-1.836970e-16 1 -1 -1.836970e-16 1290.1111 -791.7776)" class="st2" width="30.1" height="3"/>
			
				<rect x="1023.9" y="248.7" transform="matrix(-1.836970e-16 1 -1 -1.836970e-16 1288.1666 -789.8331)" class="st3" width="30.1" height="0.9"/>
		</g>
		<g id="stair_23_">
			
				<rect x="1022" y="247.7" transform="matrix(-1.836970e-16 1 -1 -1.836970e-16 1286.2222 -787.8887)" class="st2" width="30.1" height="3"/>
			
				<rect x="1020.1" y="248.7" transform="matrix(-1.836970e-16 1 -1 -1.836970e-16 1284.2777 -785.9442)" class="st3" width="30.1" height="0.9"/>
		</g>
		<g id="stair_24_">
			
				<rect x="1018.1" y="247.7" transform="matrix(-1.836970e-16 1 -1 -1.836970e-16 1282.3333 -783.9998)" class="st2" width="30.1" height="3"/>
			
				<rect x="1016.2" y="248.7" transform="matrix(-1.836970e-16 1 -1 -1.836970e-16 1280.3888 -782.0554)" class="st3" width="30.1" height="0.9"/>
		</g>
		<g id="stair_25_">
			
				<rect x="1014.2" y="247.7" transform="matrix(-1.836970e-16 1 -1 -1.836970e-16 1278.472 -780.0832)" class="st2" width="30.1" height="3"/>
			
				<rect x="1012.3" y="248.8" transform="matrix(-1.836970e-16 1 -1 -1.836970e-16 1276.5277 -778.1388)" class="st3" width="30.1" height="0.9"/>
		</g>
		<g id="stair_26_">
			
				<rect x="1010.3" y="247.7" transform="matrix(-1.836970e-16 1 -1 -1.836970e-16 1274.5833 -776.1943)" class="st2" width="30.1" height="3"/>
			
				<rect x="1008.4" y="248.8" transform="matrix(-1.836970e-16 1 -1 -1.836970e-16 1272.6388 -774.2499)" class="st3" width="30.1" height="0.9"/>
		</g>
		<rect x="1073.6" y="234.1" class="st2" width="20.4" height="30.1"/>
		<g id="stair_27_">
			<rect x="1456.6" y="296.5" class="st2" width="20.6" height="3"/>
			<rect x="1456.6" y="299.5" class="st3" width="20.6" height="0.9"/>
		</g>
		<g id="stair_28_">
			<rect x="1456.6" y="300.3" class="st2" width="20.6" height="3"/>
			<rect x="1456.6" y="303.3" class="st3" width="20.6" height="0.9"/>
		</g>
		<g id="stair_29_">
			<rect x="1456.6" y="304.2" class="st2" width="20.6" height="3"/>
			<rect x="1456.6" y="307.2" class="st3" width="20.6" height="0.9"/>
		</g>
		<g id="stair_30_">
			<rect x="1456.6" y="308.1" class="st2" width="20.6" height="3"/>
			<rect x="1456.6" y="311.1" class="st3" width="20.6" height="0.9"/>
		</g>
		<g id="stair_31_">
			<rect x="1456.6" y="312" class="st2" width="20.6" height="3"/>
			<rect x="1456.6" y="315" class="st3" width="20.6" height="0.9"/>
		</g>
		<g id="stair_32_">
			<rect x="1456.6" y="315.8" class="st2" width="20.6" height="3"/>
			<rect x="1456.6" y="318.8" class="st3" width="20.6" height="0.9"/>
		</g>
		<g id="stair_33_">
			<rect x="1456.6" y="319.7" class="st2" width="20.6" height="3"/>
			<rect x="1456.6" y="322.7" class="st3" width="20.6" height="0.9"/>
		</g>
		<g id="stair_34_">
			<rect x="1456.6" y="323.6" class="st2" width="20.6" height="3"/>
			<rect x="1456.6" y="326.6" class="st3" width="20.6" height="0.9"/>
		</g>
		<g id="stair_42_">
			<rect x="1429.7" y="296.4" class="st2" width="22.2" height="3"/>
			<rect x="1429.7" y="299.4" class="st3" width="22.2" height="0.9"/>
		</g>
		<g id="stair_41_">
			<rect x="1429.7" y="300.2" class="st2" width="22.2" height="3"/>
			<rect x="1429.7" y="303.2" class="st3" width="22.2" height="0.9"/>
		</g>
		<g id="stair_40_">
			<rect x="1429.7" y="304.1" class="st2" width="22.2" height="3"/>
			<rect x="1429.7" y="307.1" class="st3" width="22.2" height="0.9"/>
		</g>
		<g id="stair_39_">
			<rect x="1429.7" y="308" class="st2" width="22.2" height="3"/>
			<rect x="1429.7" y="311" class="st3" width="22.2" height="0.9"/>
		</g>
		<g id="stair_38_">
			<rect x="1429.7" y="311.9" class="st2" width="22.2" height="3"/>
			<rect x="1429.7" y="314.9" class="st3" width="22.2" height="0.9"/>
		</g>
		<g id="stair_37_">
			<rect x="1429.7" y="315.8" class="st2" width="22.2" height="3"/>
			<rect x="1429.7" y="318.8" class="st3" width="22.2" height="0.9"/>
		</g>
		<g id="stair_36_">
			<rect x="1429.7" y="319.6" class="st2" width="22.2" height="3"/>
			<rect x="1429.7" y="322.6" class="st3" width="22.2" height="0.9"/>
		</g>
		<g id="stair_35_">
			<rect x="1429.7" y="323.5" class="st2" width="22.2" height="3"/>
			<rect x="1429.7" y="326.5" class="st3" width="22.2" height="0.9"/>
		</g>
		<rect x="1451.8" y="270.4" class="st1" width="4.7" height="57.1"/>
		<g id="stair_48_">
			<rect x="1429.7" y="273" class="st2" width="22.2" height="3"/>
			<rect x="1429.7" y="276" class="st3" width="22.2" height="0.9"/>
		</g>
		<g id="stair_47_">
			<rect x="1429.7" y="276.9" class="st2" width="22.2" height="3"/>
			<rect x="1429.7" y="279.9" class="st3" width="22.2" height="0.9"/>
		</g>
		<g id="stair_46_">
			<rect x="1429.7" y="280.8" class="st2" width="22.2" height="3"/>
			<rect x="1429.7" y="283.8" class="st3" width="22.2" height="0.9"/>
		</g>
		<g id="stair_45_">
			<rect x="1429.7" y="284.7" class="st2" width="22.2" height="3"/>
			<rect x="1429.7" y="287.7" class="st3" width="22.2" height="0.9"/>
		</g>
		<g id="stair_44_">
			<rect x="1429.7" y="288.6" class="st2" width="22.2" height="3"/>
			<rect x="1429.7" y="291.6" class="st3" width="22.2" height="0.9"/>
		</g>
		<g id="stair_43_">
			<rect x="1429.7" y="292.5" class="st2" width="22.2" height="3"/>
			<rect x="1429.7" y="295.5" class="st3" width="22.2" height="0.9"/>
		</g>
		<rect x="1429.7" y="251" class="st2" width="22.2" height="22"/>
	</g>
</g>
<g id="Слой_1" class="st4">
	
		<image style="display:inline;overflow:visible;opacity:0.5;" width="1132" height="539" xlink:href="C:\Users\vladb\Downloads\photo_2024-05-01_19-07-41.jpg"  transform="matrix(1.6882 0 0 1.6882 0 1)">
	</image>
</g>
</svg>
