<?xml version="1.0" encoding="UTF-8"?>
<svg id="_Слой_2" data-name="Слой 2" xmlns="http://www.w3.org/2000/svg" viewBox="0 0 545.87 452.46">
  <defs>
    <style>
      .cls-1 {
        fill: #f9e46a;
      }

      .cls-1, .cls-2, .cls-3 {
        stroke-width: 0px;
      }

      .cls-2 {
        fill: #c486b9;
      }

      .cls-3 {
        fill: #996714;
      }
    </style>
  </defs>
  <g id="_Слой_1-2" data-name="Слой 1">
    <rect id="hall3_vert" class="cls-1" x="262.67" y="251.53" width="70.11" height="198.66"/>
    <rect id="hall4_hor" class="cls-1" x="332.78" y="311.12" width="213.09" height="46.99"/>
    <rect id="hall2_hor" class="cls-1" x="84.82" y="273.98" width="177.85" height="43.83"/>
    <rect id="hall1_vert" class="cls-1" x="39.03" y="240.06" width="45.79" height="77.75"/>
    <rect id="room1_vert" class="cls-1" x="333.79" y="209.43" width="37.77" height="101.68"/>
    <rect id="room2_vert" class="cls-1" x="374.84" y="209.43" width="36.69" height="101.68"/>
    <rect id="room3_vert" class="cls-1" x="413.76" y="209.43" width="34.72" height="101.68"/>
    <rect id="room4_hor" class="cls-1" x="333.79" y="359.24" width="212.08" height="90.32"/>
    <rect id="hall5_vert" class="cls-1" x="171.47" y="145.77" width="20.65" height="128.21"/>
    <rect id="room5_hor" class="cls-1" x="101.7" y="211.45" width="69.77" height="60.38"/>
    <rect id="room6_hor" class="cls-1" x="101.7" y="147.88" width="69.77" height="60.51"/>
    <rect id="room7_hor" class="cls-1" x="142.74" y="319.07" width="64.67" height="39.03"/>
    <rect id="room8_hor" class="cls-1" x="39.03" y="317.81" width="100.61" height="40.29"/>
    <rect id="room9_vert" class="cls-1" x="2.18" y="242.24" width="36.85" height="75.57"/>
    <rect id="room10_vert" class="cls-1" x="3.25" y="3.16" width="96.39" height="236.91"/>
    <g id="walls">
      <rect class="cls-3" x="332.78" y="358.11" width="2.02" height="92.08"/>
      <rect class="cls-3" x="334.8" y="358.11" width="74.4" height="3.13"/>
      <rect class="cls-3" x="418.04" y="358.11" width="127.83" height="3.13"/>
      <rect class="cls-3" x="542.65" y="361.23" width="3.22" height="88.33"/>
      <rect class="cls-3" x="334.8" y="447.35" width="207.85" height="2.21"/>
      <rect class="cls-3" x="542.65" y="311.12" width="3.22" height="46.99"/>
      <rect class="cls-3" x="436.86" y="311.12" width="105.79" height="2.4"/>
      <rect class="cls-3" x="398.97" y="311.12" width="24.95" height="2.4"/>
      <rect class="cls-3" x="359.49" y="311.12" width="24.25" height="2.4"/>
      <rect class="cls-3" x="332.78" y="311.12" width="11.12" height="2.4"/>
      <rect class="cls-3" x="332.78" y="209.43" width="1.01" height="101.68"/>
      <rect class="cls-3" x="371.56" y="209.43" width="3.28" height="101.68"/>
      <rect class="cls-3" x="411.54" y="209.43" width="2.23" height="101.68"/>
      <rect class="cls-3" x="448.48" y="209.43" width="1.77" height="101.68"/>
      <rect class="cls-3" x="333.79" y="209.43" width="114.69" height="1.83"/>
      <rect class="cls-3" x="262.67" y="251.53" width="70.11" height="2.24"/>
      <rect class="cls-3" x="262.67" y="253.77" width="2.15" height="22.23"/>
      <rect class="cls-3" x="192.13" y="273.98" width="70.55" height="2.02"/>
      <rect class="cls-3" x="192.13" y="144.38" width="1.83" height="129.6"/>
      <rect class="cls-3" x="171.47" y="144.38" width="20.65" height="1.39"/>
      <rect class="cls-3" x="169.89" y="144.38" width="1.58" height="3.51"/>
      <rect class="cls-3" x="99.64" y="146.13" width="70.26" height="1.75"/>
      <rect class="cls-3" x="99.64" y="147.88" width="2.06" height="126.09"/>
      <rect class="cls-3" x="101.7" y="271.83" width="69.77" height="2.15"/>
      <rect class="cls-3" x="101.7" y="208.39" width="69.77" height="3.06"/>
      <rect class="cls-3" x="169.15" y="183.28" width="2.32" height="53.18"/>
      <rect class="cls-3" x="169.15" y="248.46" width="2.32" height="23.37"/>
      <rect class="cls-3" x="169.15" y="147.88" width="2.32" height="23.53"/>
      <rect class="cls-3" x="99.64" width="2.06" height="146.13"/>
      <rect class="cls-3" width="99.64" height="3.16"/>
      <rect class="cls-3" y="3.16" width="3.25" height="239.08"/>
      <rect class="cls-3" x="3.25" y="240.06" width="35.78" height="2.18"/>
      <rect class="cls-3" y="242.24" width="2.18" height="77.92"/>
      <rect class="cls-3" x="2.18" y="317.81" width="36.85" height="2.35"/>
      <rect class="cls-3" x="36.71" y="320.16" width="2.32" height="40.09"/>
      <rect class="cls-3" x="39.03" y="358.11" width="170.72" height="2.15"/>
      <rect class="cls-3" x="207.41" y="317.81" width="2.34" height="40.29"/>
      <rect class="cls-3" x="139.64" y="317.81" width="3.09" height="40.29"/>
      <rect class="cls-3" x="187.83" y="317.81" width="19.58" height="1.26"/>
      <rect class="cls-3" x="142.74" y="317.81" width="37.07" height="1.26"/>
      <rect class="cls-3" x="84.82" y="240.06" width="14.82" height="2.18"/>
      <rect class="cls-3" x="84.82" y="242.24" width="2.34" height="31.74"/>
      <rect class="cls-3" x="87.16" y="271.83" width="12.48" height="2.15"/>
      <rect class="cls-3" x="209.75" y="317.81" width="52.93" height="2.53"/>
      <rect class="cls-3" x="260.27" y="320.34" width="2.4" height="132.13"/>
      <rect class="cls-3" x="262.67" y="450.19" width="72.13" height="2.27"/>
    </g>
    <rect id="white" class="cls-2" x="112.92" y="314.39" width="13.28" height="3.42"/>
    <rect id="black" class="cls-2" x="237.43" y="314.39" width="13.28" height="3.42"/>
  </g>
</svg>