<?xml version="1.0" encoding="UTF-8"?>
<svg id="_Слой_2" data-name="Слой 2" xmlns="http://www.w3.org/2000/svg" viewBox="0 0 1765.7 312.2">
  <defs>
    <style>
      .cls-1 {
        fill: #f2e9c7;
      }

      .cls-1, .cls-2, .cls-3, .cls-4 {
        stroke-width: 0px;
      }

      .cls-2 {
        fill: #f4c4b0;
      }

      .cls-3 {
        fill: #eaaf9b;
      }

      .cls-4 {
        fill: #bc9353;
      }
    </style>
  </defs>
  <g id="_Слой_1-2" data-name="Слой 1">
    <g id="_Слой_2-2" data-name="Слой 2">
      <g id="floor">
        <rect class="cls-1" x="526.3" y="1.9" width="686.9" height="256.4"/>
        <rect class="cls-1" x="1213.2" y="54.4" width="526.7" height="257.8"/>
        <rect class="cls-1" x="2.3" width="217.3" height="54.3"/>
        <rect class="cls-1" x="408.3" y="1.9" width="118" height="52.4"/>
        <rect class="cls-1" x="2.3" y="54.4" width="524" height="253.8"/>
        <rect class="cls-1" x="1513.6" width="226.2" height="54.3"/>
      </g>
      <g id="walls">
        <rect class="cls-4" x="2.3" y="302.4" width="524" height="5.8"/>
        <rect class="cls-4" x="2.3" width="7.3" height="138.3"/>
        <rect class="cls-4" y="138.4" width="5.9" height="164"/>
        <rect class="cls-4" x="6" y="197.5" width="35.2" height="5.3"/>
        <rect class="cls-4" x="55" y="197.5" width="116" height="5.3"/>
        <rect class="cls-4" x="159.9" y="202.8" width="4.7" height="99.6"/>
        <rect class="cls-4" x="164.5" y="224.1" width="6.4" height="4.7"/>
        <rect class="cls-4" x="184.5" y="224.1" width="71.3" height="4.7"/>
        <rect class="cls-4" x="192.3" y="220.4" width="6.2" height="3.8"/>
        <rect class="cls-4" x="184.5" y="197.5" width="84.9" height="5.3"/>
        <rect class="cls-4" x="191.4" y="202.8" width="7.1" height="5.3"/>
        <rect class="cls-4" x="250.1" y="202.8" width="5.8" height="21.3"/>
        <rect class="cls-4" x="250.1" y="228.8" width="5.8" height="54.9"/>
        <rect class="cls-4" x="250.1" y="283.7" width="15.8" height="4.4"/>
        <rect class="cls-4" x="261" y="288.1" width="4.9" height="14.2"/>
        <rect class="cls-4" x="284.6" y="197.5" width="48.8" height="5.3"/>
        <rect class="cls-4" x="310.1" y="202.8" width="6.7" height="99.6"/>
        <rect class="cls-4" x="361" y="231" width="4" height="71.3"/>
        <rect class="cls-4" x="361" y="202.8" width="5.1" height="14.9"/>
        <rect class="cls-4" x="348.7" y="197.5" width="33.8" height="5.3"/>
        <rect class="cls-4" x="396.1" y="197.5" width="33.3" height="5.3"/>
        <rect class="cls-4" x="411.4" y="202.8" width="5.1" height="99.6"/>
        <rect class="cls-4" x="443.6" y="197.5" width="35.1" height="5.3"/>
        <rect class="cls-4" x="463.6" y="202.8" width="5.1" height="99.6"/>
        <rect class="cls-4" x="519.9" y="258.4" width="6.9" height="44"/>
        <rect class="cls-4" x="519.9" y="251.5" width="321.9" height="6.9"/>
        <rect class="cls-4" x="492.7" y="197.5" width="28.7" height="5.3"/>
        <rect class="cls-4" x="521.4" y="150.2" width="4.9" height="101.3"/>
        <rect class="cls-4" x="526.3" y="150.5" width="28.6" height="3.3"/>
        <rect class="cls-4" x="569.9" y="150.5" width="76" height="3.3"/>
        <rect class="cls-4" x="619" y="153.8" width="4.9" height="97.7"/>
        <rect class="cls-4" x="671.1" y="153.8" width="5" height="97.7"/>
        <rect class="cls-4" x="661.1" y="150.5" width="110.2" height="3.3"/>
        <rect class="cls-4" x="771.3" y="144.7" width="4.3" height="13.8"/>
        <rect class="cls-4" x="771.3" y="172.7" width="4.3" height="78.8"/>
        <rect class="cls-4" x="775.6" y="219.4" width="5.5" height="4.5"/>
        <rect class="cls-4" x="794.6" y="219.4" width="38.7" height="5.3"/>
        <rect class="cls-4" x="828.1" y="224.7" width="5.2" height="26.8"/>
        <rect class="cls-4" x="833.3" y="228" width="8.5" height="4.8"/>
        <rect class="cls-4" x="856.8" y="251.5" width="30.7" height="6.9"/>
        <rect class="cls-4" x="870.5" y="245" width="5.3" height="6.4"/>
        <rect class="cls-4" x="866.9" y="233.3" width="11.8" height="11.8"/>
        <rect class="cls-4" x="856.8" y="228" width="30.7" height="4.8"/>
        <rect class="cls-4" x="902.8" y="252.2" width="316.2" height="6.2"/>
        <rect class="cls-4" x="1213.2" y="231.7" width="4.9" height="20.5"/>
        <rect class="cls-4" x="1214.3" y="152" width="3.8" height="66.5"/>
        <rect class="cls-4" x="1218.1" y="199" width="35" height="3.3"/>
        <rect class="cls-4" x="1186.1" y="152" width="28.2" height="3.2"/>
        <rect class="cls-4" x="1105" y="152" width="66.3" height="3.2"/>
        <rect class="cls-4" x="1121.8" y="155.2" width="3.5" height="97"/>
        <rect class="cls-4" x="969.9" y="144.7" width="3.8" height="14.8"/>
        <rect class="cls-4" x="973.6" y="152.1" width="116" height="3.1"/>
        <rect class="cls-4" x="1071.1" y="155.2" width="3.7" height="97"/>
        <rect class="cls-4" x="912.9" y="220.4" width="8.3" height="3.8"/>
        <rect class="cls-4" x="913.4" y="224.1" width="3" height="28.1"/>
        <rect class="cls-4" x="902.8" y="229.3" width="10.6" height="2.7"/>
        <rect class="cls-4" x="935.7" y="220.4" width="34.1" height="3.8"/>
        <rect class="cls-4" x="969.9" y="175.4" width="3.8" height="76.8"/>
        <rect class="cls-4" x="1213.2" y="258.4" width="5.8" height="52.2"/>
        <rect class="cls-4" x="1219" y="303.8" width="520.9" height="6.8"/>
        <rect class="cls-4" x="1615.3" y="256.8" width="6" height="47"/>
        <rect class="cls-4" x="1616.3" y="224.3" width="4.2" height="18.2"/>
        <rect class="cls-4" x="1620.5" y="231.1" width="60.1" height="4.3"/>
        <rect class="cls-4" x="1675.9" y="235.5" width="4.8" height="68.3"/>
        <rect class="cls-4" x="1733.1" y="194" width="6.8" height="109.8"/>
        <rect class="cls-4" x="1739.9" y="200.4" width="23.3" height="4"/>
        <rect class="cls-4" x="1576.5" y="200.4" width="156.6" height="4.8"/>
        <rect class="cls-4" x="1616.3" y="205.1" width="4.2" height="5.4"/>
        <rect class="cls-4" x="1467.4" y="199.1" width="93.8" height="4.7"/>
        <rect class="cls-4" x="1522.1" y="203.8" width="5.6" height="14.2"/>
        <rect class="cls-4" x="1522.5" y="233.4" width="4.7" height="70.4"/>
        <rect class="cls-4" x="1422.5" y="233.1" width="4.4" height="70.7"/>
        <rect class="cls-4" x="1266.6" y="199.1" width="186.2" height="4.1"/>
        <rect class="cls-4" x="1422.5" y="203.3" width="5" height="14.4"/>
        <rect class="cls-4" x="9.6" width="177.7" height="8"/>
        <rect class="cls-4" x="111" y="8" width="4.7" height="11.3"/>
        <rect class="cls-4" x="111" y="57" width="76.3" height="5"/>
        <rect class="cls-4" x="111" y="32.7" width="4.7" height="24.3"/>
        <rect class="cls-4" x="159.9" y="62" width="4.7" height="69"/>
        <rect class="cls-4" x="177.3" y="44.9" width="4.7" height="12.2"/>
        <rect class="cls-4" x="177.3" y="8" width="4.7" height="19.2"/>
        <rect class="cls-4" x="202" width="17.7" height="6.3"/>
        <rect class="cls-4" x="212" y="6.4" width="7.7" height="48"/>
        <rect class="cls-4" x="212" y="54.4" width="165" height="7.7"/>
        <rect class="cls-4" x="213.6" y="62" width="4.3" height="14.7"/>
        <rect class="cls-4" x="201.9" y="57.8" width="10.1" height="2.8"/>
        <rect class="cls-4" x="254.2" y="62" width="6" height="93.1"/>
        <rect class="cls-4" x="244.9" y="155.1" width="31.3" height="4.1"/>
        <rect class="cls-4" x="213.6" y="91.5" width="5" height="39.6"/>
        <rect class="cls-4" x="100.6" y="155.7" width="130.6" height="3.6"/>
        <rect class="cls-4" x="160.9" y="145" width="4.3" height="10.7"/>
        <rect class="cls-4" x="215.1" y="145.6" width="4" height="10.1"/>
        <rect class="cls-4" x="291.2" y="155.7" width="28.7" height="3.6"/>
        <rect class="cls-4" x="312.3" y="62" width="5" height="93.7"/>
        <rect class="cls-4" x="317.3" y="118.1" width="2.6" height="3.6"/>
        <rect class="cls-4" x="333.2" y="118.1" width="27.8" height="3.6"/>
        <rect class="cls-4" x="342.5" y="148" width="3.7" height="7.7"/>
        <rect class="cls-4" x="334" y="155.7" width="46.8" height="3.6"/>
        <rect class="cls-4" x="361" y="62" width="3.8" height="93.7"/>
        <rect class="cls-4" x="364.7" y="81.6" width="15.3" height="3.2"/>
        <rect class="cls-4" x="399" y="56" width="17.3" height="6"/>
        <rect class="cls-4" x="408.3" y="1.6" width="24.8" height="5.9"/>
        <rect class="cls-4" x="408.7" y="7.5" width="7.6" height="48.6"/>
        <rect class="cls-4" x="450.1" y="2.1" width="21.8" height="5.3"/>
        <rect class="cls-4" x="396.5" y="155.7" width="28.6" height="4"/>
        <rect class="cls-4" x="410.8" y="62" width="5.1" height="93.7"/>
        <rect class="cls-4" x="395.6" y="81.6" width="15.2" height="3.2"/>
        <rect class="cls-4" x="439.7" y="155.7" width="29.1" height="3"/>
        <rect class="cls-4" x="465.2" y="110.5" width="3.7" height="45.2"/>
        <rect class="cls-4" x="415.9" y="119.9" width="49.3" height="3.8"/>
        <rect class="cls-4" x="415.9" y="76" width="48" height="4"/>
        <rect class="cls-4" x="420" y="80" width="4.4" height="39.9"/>
        <rect class="cls-4" x="463.9" y="51.3" width="4.2" height="38.3"/>
        <rect class="cls-4" x="468.1" y="51.3" width="5" height="3.9"/>
        <rect class="cls-4" x="463.9" y="7.5" width="4.2" height="43.8"/>
        <rect class="cls-4" x="500.6" y="51.3" width="20" height="3.9"/>
        <rect class="cls-4" x="520.6" y="8.7" width="3.7" height="103"/>
        <rect class="cls-4" x="515.8" y="3" width="319.3" height="5.7"/>
        <rect class="cls-4" x="716.2" y="8.7" width="4.6" height="28.7"/>
        <rect class="cls-4" x="717" y="52" width="3" height="13.5"/>
        <rect class="cls-4" x="717" y="81.7" width="3" height="26.5"/>
        <rect class="cls-4" x="720" y="89" width="15.2" height="3.2"/>
        <rect class="cls-4" x="731.3" y="69.4" width="3.8" height="19.7"/>
        <rect class="cls-4" x="524.3" y="108.2" width="104.9" height="3.5"/>
        <rect class="cls-4" x="644.3" y="108.2" width="169.7" height="4.6"/>
        <rect class="cls-4" x="771.3" y="112.8" width="4.3" height="5.3"/>
        <rect class="cls-4" x="810.7" y="98.1" width="3.2" height="10.1"/>
        <rect class="cls-4" x="810.7" y="55.1" width="3.2" height="22.1"/>
        <rect class="cls-4" x="764.5" y="19" width="70.6" height="4"/>
        <rect class="cls-4" x="810.7" y="8.7" width="3.2" height="10.3"/>
        <rect class="cls-4" x="810.7" y="23" width="3.2" height="10.2"/>
        <rect class="cls-4" x="764.5" y="23" width="4.9" height="85.2"/>
        <rect class="cls-4" x="769.4" y="63.9" width="41.3" height="4"/>
        <rect class="cls-4" x="735.1" y="69.4" width="29.4" height="3.4"/>
        <rect class="cls-4" x="990.3" y="42.6" width="4.2" height="36.6"/>
        <rect class="cls-4" x="990.3" y="19" width="4.2" height="10.4"/>
        <rect class="cls-4" x="1011.6" y="8.7" width="4.2" height="101.8"/>
        <rect class="cls-4" x="909.2" y="3" width="134.4" height="5.7"/>
        <rect class="cls-4" x="913.6" y="8.7" width="4" height="14.3"/>
        <rect class="cls-4" x="907.9" y="19" width="5.8" height="4"/>
        <rect class="cls-4" x="990.3" y="92.2" width="4.2" height="18.3"/>
        <rect class="cls-4" x="915.6" y="110.5" width="299" height="5"/>
        <rect class="cls-4" x="969.3" y="115.5" width="4.3" height="3.4"/>
        <rect class="cls-4" x="994.5" y="19" width="17.1" height="4"/>
        <rect class="cls-4" x="1069.6" y="1.9" width="20.3" height="7.6"/>
        <rect class="cls-4" x="1082.2" y="9.5" width="4" height="101"/>
        <rect class="cls-4" x="1103.3" y="1.9" width="25.9" height="7.6"/>
        <rect class="cls-4" x="1110.7" y="9.5" width="4.2" height="61.6"/>
        <rect class="cls-4" x="1115" y="66.8" width="99.7" height="4.2"/>
        <rect class="cls-4" x="1154.2" y="1.9" width="26.8" height="6.8"/>
        <rect class="cls-4" x="1171.7" y="8.7" width="4.1" height="58.1"/>
        <rect class="cls-4" x="1213.2" y="1.5" width="7.3" height="53.7"/>
        <rect class="cls-4" x="1206.3" y="1.9" width="6.9" height="6.1"/>
        <rect class="cls-4" x="1213.2" y="55.1" width="123.9" height="7.6"/>
        <rect class="cls-4" x="1214.6" y="62.7" width="3.5" height="50.3"/>
        <rect class="cls-4" x="1363.6" y="55.1" width="158.4" height="7.6"/>
        <rect class="cls-4" x="1516" y="62.7" width="4.7" height="70.7"/>
        <rect class="cls-4" x="1446" y="155.2" width="194.7" height="4.2"/>
        <rect class="cls-4" x="1516" y="147" width="4.7" height="8.2"/>
        <rect class="cls-4" x="1624.3" y="8" width="4.7" height="147.2"/>
        <rect class="cls-4" x="1520.6" y="85.5" width="74.3" height="4"/>
        <rect class="cls-4" x="1608.3" y="85.5" width="16" height="4"/>
        <rect class="cls-4" x="1520.6" y="65" width="74.3" height="4"/>
        <rect class="cls-4" x="1608.3" y="65.9" width="16" height="4"/>
        <rect class="cls-4" x="1607.2" y="46.1" width="17.1" height="3.3"/>
        <rect class="cls-4" x="1608.3" y="25.9" width="16" height="4"/>
        <rect class="cls-4" x="1522.1" y="46.1" width="72.9" height="3.3"/>
        <rect class="cls-4" x="1513.6" width="8.4" height="55.1"/>
        <rect class="cls-4" x="1522.1" y="25.9" width="74.7" height="4"/>
        <rect class="cls-4" x="1522.1" width="217.8" height="8"/>
        <rect class="cls-4" x="1733.1" y="8" width="6.8" height="159"/>
        <rect class="cls-4" x="1653.2" y="156.1" width="79.9" height="3.2"/>
        <rect class="cls-4" x="1739.9" y="156.1" width="25.8" height="3.2"/>
        <rect class="cls-4" x="1407.4" y="155.2" width="26.2" height="4.2"/>
        <rect class="cls-4" x="1426.1" y="62.7" width="4.4" height="92.5"/>
        <rect class="cls-4" x="1422.5" y="110.8" width="3.6" height="5.6"/>
        <rect class="cls-4" x="1354.5" y="153.6" width="40.4" height="5.8"/>
        <rect class="cls-4" x="1373.4" y="62.7" width="3.3" height="90.9"/>
        <rect class="cls-4" x="1376.7" y="127" width="15.1" height="4"/>
        <rect class="cls-4" x="1387.4" y="121.9" width="22" height="3.3"/>
        <rect class="cls-4" x="1387.4" y="125.3" width="4.4" height="1.8"/>
        <rect class="cls-4" x="1405.3" y="111.5" width="4.1" height="10.4"/>
        <rect class="cls-4" x="1376.7" y="111.5" width="28.6" height="3.5"/>
        <rect class="cls-4" x="1400.5" y="109.6" width="4.9" height="1.9"/>
        <rect class="cls-4" x="1400.5" y="92.9" width="4.6" height="9.5"/>
        <rect class="cls-4" x="1376.7" y="96.4" width="23.7" height="3.4"/>
        <rect class="cls-4" x="1400.5" y="76.5" width="4" height="9.1"/>
        <rect class="cls-4" x="1376.7" y="79.5" width="23.7" height="3.2"/>
        <rect class="cls-4" x="1376.7" y="64.3" width="27.3" height="4"/>
        <rect class="cls-4" x="1363.6" y="68.7" width="9.8" height="3.3"/>
        <rect class="cls-4" x="1269.4" y="62.7" width="4.2" height="96.7"/>
        <rect class="cls-4" x="1273.6" y="153.6" width="24.7" height="5.8"/>
        <rect class="cls-4" x="1309.4" y="153.6" width="31.9" height="5.2"/>
        <rect class="cls-4" x="1322.5" y="62.7" width="3.5" height="90.9"/>
        <rect class="cls-4" x="1325.3" y="68.3" width="11.8" height="5.1"/>
        <rect class="cls-4" x="1273.6" y="74.9" width="48.8" height="4"/>
        <rect class="cls-4" x="1273.6" y="78" width="42.3" height="43.9"/>
        <rect class="cls-4" x="6" y="155.7" width="79.6" height="4.6"/>
      </g>
      <g id="stairs">
        <g id="stair">
          <rect class="cls-2" x="364.7" y="116.3" width="46.1" height="3"/>
          <rect class="cls-3" x="364.7" y="119.3" width="46.1" height=".9"/>
        </g>
        <g id="stair-2" data-name="stair">
          <rect class="cls-2" x="364.7" y="112.4" width="46.1" height="3"/>
          <rect class="cls-3" x="364.7" y="115.4" width="46.1" height=".9"/>
        </g>
        <g id="stair-3" data-name="stair">
          <rect class="cls-2" x="364.7" y="108.5" width="46.1" height="3"/>
          <rect class="cls-3" x="364.7" y="111.5" width="46.1" height=".9"/>
        </g>
        <g id="stair-4" data-name="stair">
          <rect class="cls-2" x="364.7" y="104.6" width="46.1" height="3"/>
          <rect class="cls-3" x="364.7" y="107.6" width="46.1" height=".9"/>
        </g>
        <g id="stair-5" data-name="stair">
          <rect class="cls-2" x="364.7" y="120.2" width="46.1" height="3"/>
          <rect class="cls-3" x="364.7" y="123.2" width="46.1" height=".9"/>
        </g>
        <g id="stair-6" data-name="stair">
          <rect class="cls-2" x="364.7" y="124.1" width="46.1" height="3"/>
          <rect class="cls-3" x="364.7" y="127.1" width="46.1" height=".9"/>
        </g>
        <g id="stair-7" data-name="stair">
          <rect class="cls-2" x="364.7" y="128" width="46.1" height="3"/>
          <rect class="cls-3" x="364.7" y="131" width="46.1" height=".9"/>
        </g>
        <g id="stair-8" data-name="stair">
          <rect class="cls-2" x="468.1" y="10.2" width="52.6" height="3"/>
          <rect class="cls-3" x="468.1" y="13.2" width="52.6" height=".9"/>
        </g>
        <g id="stair-9" data-name="stair">
          <rect class="cls-2" x="468.1" y="14.1" width="52.6" height="3"/>
          <rect class="cls-3" x="468.1" y="17.1" width="52.6" height=".9"/>
        </g>
        <g id="stair-10" data-name="stair">
          <rect class="cls-2" x="468.1" y="18" width="52.6" height="3"/>
          <rect class="cls-3" x="468.1" y="21" width="52.6" height=".9"/>
        </g>
        <g id="stair-11" data-name="stair">
          <rect class="cls-2" x="468.1" y="21.9" width="52.6" height="3"/>
          <rect class="cls-3" x="468.1" y="24.9" width="52.6" height=".9"/>
        </g>
        <g id="stair-12" data-name="stair">
          <rect class="cls-2" x="468.1" y="25.8" width="52.6" height="3"/>
          <rect class="cls-3" x="468.1" y="28.8" width="52.6" height=".9"/>
        </g>
        <g id="stair-13" data-name="stair">
          <rect class="cls-2" x="468.1" y="29.7" width="52.6" height="3"/>
          <rect class="cls-3" x="468.1" y="32.7" width="52.6" height=".9"/>
        </g>
        <g id="stair-14" data-name="stair">
          <rect class="cls-2" x="966.82" y="45.81" width="3" height="30.1"/>
          <rect class="cls-3" x="965.98" y="45.86" width=".9" height="30.1"/>
        </g>
        <g id="stair-15" data-name="stair">
          <rect class="cls-2" x="962.93" y="45.8" width="3" height="30.1"/>
          <rect class="cls-3" x="962.09" y="45.84" width=".9" height="30.1"/>
        </g>
        <g id="stair-16" data-name="stair">
          <rect class="cls-2" x="959.04" y="45.79" width="3" height="30.1"/>
          <rect class="cls-3" x="958.2" y="45.83" width=".9" height="30.1"/>
        </g>
        <g id="stair-17" data-name="stair">
          <rect class="cls-2" x="955.16" y="45.78" width="3" height="30.1"/>
          <rect class="cls-3" x="954.31" y="45.82" width=".9" height="30.1"/>
        </g>
        <g id="stair-18" data-name="stair">
          <rect class="cls-2" x="951.29" y="45.79" width="3" height="30.1"/>
          <rect class="cls-3" x="950.35" y="45.84" width=".9" height="30.1"/>
        </g>
        <g id="stair-19" data-name="stair">
          <rect class="cls-2" x="947.41" y="45.88" width="3" height="30.1"/>
          <rect class="cls-3" x="946.46" y="45.83" width=".9" height="30.1"/>
        </g>
        <g id="stair-20" data-name="stair">
          <rect class="cls-2" x="943.49" y="45.84" width="3" height="30.1"/>
          <rect class="cls-3" x="942.64" y="45.79" width=".9" height="30.1"/>
        </g>
        <g id="stair-21" data-name="stair">
          <rect class="cls-2" x="939.6" y="45.83" width="3" height="30.1"/>
          <rect class="cls-3" x="938.76" y="45.78" width=".9" height="30.1"/>
        </g>
        <g id="stair-22" data-name="stair">
          <rect class="cls-2" x="935.71" y="45.82" width="3" height="30.1"/>
          <rect class="cls-3" x="934.87" y="45.77" width=".9" height="30.1"/>
        </g>
        <g id="stair-23" data-name="stair">
          <rect class="cls-2" x="931.82" y="45.81" width="3" height="30.1"/>
          <rect class="cls-3" x="930.98" y="45.86" width=".9" height="30.1"/>
        </g>
        <g id="stair-24" data-name="stair">
          <rect class="cls-2" x="927.93" y="45.8" width="3" height="30.1"/>
          <rect class="cls-3" x="927.09" y="45.84" width=".9" height="30.1"/>
        </g>
        <g id="stair-25" data-name="stair">
          <rect class="cls-2" x="924.07" y="45.82" width="3" height="30.1"/>
          <rect class="cls-3" x="923.13" y="45.86" width=".9" height="30.1"/>
        </g>
        <g id="stair-26" data-name="stair">
          <rect class="cls-2" x="920.18" y="45.81" width="3" height="30.1"/>
          <rect class="cls-3" x="919.24" y="45.85" width=".9" height="30.1"/>
        </g>
        <rect class="cls-2" x="969.9" y="45.8" width="20.4" height="30.1"/>
        <g id="stair-27" data-name="stair">
          <rect class="cls-2" x="1352.9" y="108.2" width="20.6" height="3"/>
          <rect class="cls-3" x="1352.9" y="111.2" width="20.6" height=".9"/>
        </g>
        <g id="stair-28" data-name="stair">
          <rect class="cls-2" x="1352.9" y="112" width="20.6" height="3"/>
          <rect class="cls-3" x="1352.9" y="115" width="20.6" height=".9"/>
        </g>
        <g id="stair-29" data-name="stair">
          <rect class="cls-2" x="1352.9" y="115.9" width="20.6" height="3"/>
          <rect class="cls-3" x="1352.9" y="118.9" width="20.6" height=".9"/>
        </g>
        <g id="stair-30" data-name="stair">
          <rect class="cls-2" x="1352.9" y="119.8" width="20.6" height="3"/>
          <rect class="cls-3" x="1352.9" y="122.8" width="20.6" height=".9"/>
        </g>
        <g id="stair-31" data-name="stair">
          <rect class="cls-2" x="1352.9" y="123.7" width="20.6" height="3"/>
          <rect class="cls-3" x="1352.9" y="126.7" width="20.6" height=".9"/>
        </g>
        <g id="stair-32" data-name="stair">
          <rect class="cls-2" x="1352.9" y="127.5" width="20.6" height="3"/>
          <rect class="cls-3" x="1352.9" y="130.5" width="20.6" height=".9"/>
        </g>
        <g id="stair-33" data-name="stair">
          <rect class="cls-2" x="1352.9" y="131.4" width="20.6" height="3"/>
          <rect class="cls-3" x="1352.9" y="134.4" width="20.6" height=".9"/>
        </g>
        <g id="stair-34" data-name="stair">
          <rect class="cls-2" x="1352.9" y="135.3" width="20.6" height="3"/>
          <rect class="cls-3" x="1352.9" y="138.3" width="20.6" height=".9"/>
        </g>
        <g id="stair-35" data-name="stair">
          <rect class="cls-2" x="1326" y="108.1" width="22.2" height="3"/>
          <rect class="cls-3" x="1326" y="111.1" width="22.2" height=".9"/>
        </g>
        <g id="stair-36" data-name="stair">
          <rect class="cls-2" x="1326" y="111.9" width="22.2" height="3"/>
          <rect class="cls-3" x="1326" y="114.9" width="22.2" height=".9"/>
        </g>
        <g id="stair-37" data-name="stair">
          <rect class="cls-2" x="1326" y="115.8" width="22.2" height="3"/>
          <rect class="cls-3" x="1326" y="118.8" width="22.2" height=".9"/>
        </g>
        <g id="stair-38" data-name="stair">
          <rect class="cls-2" x="1326" y="119.7" width="22.2" height="3"/>
          <rect class="cls-3" x="1326" y="122.7" width="22.2" height=".9"/>
        </g>
        <g id="stair-39" data-name="stair">
          <rect class="cls-2" x="1326" y="123.6" width="22.2" height="3"/>
          <rect class="cls-3" x="1326" y="126.6" width="22.2" height=".9"/>
        </g>
        <g id="stair-40" data-name="stair">
          <rect class="cls-2" x="1326" y="127.5" width="22.2" height="3"/>
          <rect class="cls-3" x="1326" y="130.5" width="22.2" height=".9"/>
        </g>
        <g id="stair-41" data-name="stair">
          <rect class="cls-2" x="1326" y="131.3" width="22.2" height="3"/>
          <rect class="cls-3" x="1326" y="134.3" width="22.2" height=".9"/>
        </g>
        <g id="stair-42" data-name="stair">
          <rect class="cls-2" x="1326" y="135.2" width="22.2" height="3"/>
          <rect class="cls-3" x="1326" y="138.2" width="22.2" height=".9"/>
        </g>
        <rect class="cls-4" x="1348.1" y="82.1" width="4.7" height="57.1"/>
        <g id="stair-43" data-name="stair">
          <rect class="cls-2" x="1326" y="84.7" width="22.2" height="3"/>
          <rect class="cls-3" x="1326" y="87.7" width="22.2" height=".9"/>
        </g>
        <g id="stair-44" data-name="stair">
          <rect class="cls-2" x="1326" y="88.6" width="22.2" height="3"/>
          <rect class="cls-3" x="1326" y="91.6" width="22.2" height=".9"/>
        </g>
        <g id="stair-45" data-name="stair">
          <rect class="cls-2" x="1326" y="92.5" width="22.2" height="3"/>
          <rect class="cls-3" x="1326" y="95.5" width="22.2" height=".9"/>
        </g>
        <g id="stair-46" data-name="stair">
          <rect class="cls-2" x="1326" y="96.4" width="22.2" height="3"/>
          <rect class="cls-3" x="1326" y="99.4" width="22.2" height=".9"/>
        </g>
        <g id="stair-47" data-name="stair">
          <rect class="cls-2" x="1326" y="100.3" width="22.2" height="3"/>
          <rect class="cls-3" x="1326" y="103.3" width="22.2" height=".9"/>
        </g>
        <g id="stair-48" data-name="stair">
          <rect class="cls-2" x="1326" y="104.2" width="22.2" height="3"/>
          <rect class="cls-3" x="1326" y="107.2" width="22.2" height=".9"/>
        </g>
        <rect class="cls-2" x="1326" y="62.7" width="22.2" height="22"/>
      </g>
    </g>
  </g>
</svg>