<svg width="40" height="39" viewBox="0 0 40 39" fill="none" xmlns="http://www.w3.org/2000/svg">
<g clip-path="url(#clip0_290_15)">
<path d="M22 1.95C22 0.873054 21.1046 0 20 0C18.8954 0 18 0.873054 18 1.95V17.55H2C0.89544 17.55 0 18.423 0 19.5C0 20.577 0.89544 21.45 2 21.45H18V37.05C18 38.127 18.8954 39 20 39C21.1046 39 22 38.127 22 37.05V21.45H38C39.1046 21.45 40 20.577 40 19.5C40 18.423 39.1046 17.55 38 17.55H22V1.95Z" fill="#CBCCCF"/>
</g>
<defs>
<clipPath id="clip0_290_15">
<rect width="40" height="39" fill="white"/>
</clipPath>
</defs>
</svg>
