<svg width="64" height="64" viewBox="0 0 64 64" fill="none" xmlns="http://www.w3.org/2000/svg">
<path fill-rule="evenodd" clip-rule="evenodd" d="M33.1405 5.33331C30.1704 5.33331 27.4653 6.93518 22.0555 10.1389L20.2258 11.2225C14.8159 14.4263 12.1109 16.0282 10.6258 18.6666C9.14062 21.3051 9.14062 24.5089 9.14062 30.9165V33.0834C9.14062 39.4912 9.14062 42.6949 10.6258 45.3333C12.1109 47.9717 14.8159 49.5736 20.2258 52.7773L22.0555 53.861C27.4653 57.0648 30.1704 58.6666 33.1405 58.6666C36.1109 58.6666 38.8157 57.0648 44.2259 53.861L46.0555 52.7773C51.4653 49.5736 54.1704 47.9717 55.6555 45.3333C57.1405 42.6949 57.1405 39.4912 57.1405 33.0834V30.9165C57.1405 24.5089 57.1405 21.3051 55.6555 18.6666C54.1704 16.0282 51.4653 14.4263 46.0555 11.2225L44.2259 10.1389C38.8157 6.93518 36.1109 5.33331 33.1405 5.33331ZM23.1406 32C23.1406 26.4771 27.6179 22 33.1405 22C38.6635 22 43.1405 26.4771 43.1405 32C43.1405 37.5229 38.6635 42 33.1405 42C27.6179 42 23.1406 37.5229 23.1406 32Z" fill="#939393"/>
</svg>
