<?xml version="1.0" encoding="UTF-8"?>
<svg id="_Слой_2" data-name="Слой 2" xmlns="http://www.w3.org/2000/svg" viewBox="0 0 462.25 537.73">
  <defs>
    <style>
      .cls-1 {
        fill: #f9eb67;
      }

      .cls-1, .cls-2 {
        stroke-width: 0px;
      }

      .cls-2 {
        fill: #c486b9;
      }

      .cls-3 {
        fill: #1d1d1b;
        font-family: MyriadPro-Regular, 'Myriad Pro';
        font-size: 12px;
      }
    </style>
  </defs>
  <g id="_Слой_1-2" data-name="Слой 1">
    <g id="floors">
      <rect id="hall5_vert" class="cls-1" x="436.99" y="60.51" width="25.26" height="477.22"/>
      <rect id="hall4_hor" class="cls-1" x="70.39" y="78.03" width="365.97" height="23.21"/>
      <rect id="hall3_vert" class="cls-1" x="84.32" y="100.67" width="24.16" height="104.97"/>
      <rect id="hall2_hor" class="cls-1" x="66.6" y="174.95" width="17.72" height="13.07"/>
      <rect id="hall1_hor" class="cls-1" y="170.02" width="66.6" height="18"/>
      <rect id="hall_to_room116_vert" class="cls-1" x="153.22" y="60.19" width="12.95" height="17.84"/>
      <rect id="room116_hor" class="cls-1" x="136.74" y="1.39" width="99.73" height="58.8"/>
      <rect id="hall_to_room117_vert" class="cls-1" x="286.64" y="58.86" width="12.95" height="19.17"/>
      <rect id="hall_to_room118_vert" class="cls-1" x="390.82" y="58.86" width="10.11" height="19.17"/>
      <rect id="room118_hor" class="cls-1" x="312.88" width="101.49" height="58.86"/>
      <rect id="room117_hor" class="cls-1" x="241.45" y="1.39" width="66.32" height="57.47"/>
      <rect id="room115_hor" class="cls-1" x="113.75" y="104.84" width="183.85" height="61.26"/>
      <rect id="hall2_to_room115_hor" class="cls-1" x="158.4" y="101.24" width="12.79" height="3.6"/>
      <rect id="hall1_to_room115_hor" class="cls-1" x="241.39" y="101.24" width="12.84" height="3.6"/>
    </g>
    <rect id="white" class="cls-2" x="242.62" y="78.03" width="10.38" height="2.89"/>
    <rect id="black" class="cls-2" x="407.95" y="78.03" width="10.38" height="2.89"/>
    <text class="cls-3" transform="translate(352.32 94.38)">scale=10</text>
  </g>
</svg>